<svg xmlns="http://www.w3.org/2000/svg" xmlns:xlink="http://www.w3.org/1999/xlink" viewBox="0 0 859.773 483.6223"><defs><style>.cls-1{font-size:105.2552px;font-family:Lato-Black, Lato;font-weight:800;}.cls-2{stroke:#000;fill:url(#linear-gradient);}.cls-2,.cls-3{stroke-miterlimit:10;}.cls-3{fill:none;stroke:#110b0b;}</style><linearGradient id="linear-gradient" x1="113.8262" y1="165.7304" x2="718.1918" y2="165.7304" gradientTransform="translate(18.7521 23.7042) rotate(-1.9875)" gradientUnits="userSpaceOnUse"><stop offset="0" stop-color="#f55"/><stop offset="0.5854" stop-color="#9e005d"/><stop offset="0.714" stop-color="#773989"/><stop offset="0.9101" stop-color="#3f8bc9"/><stop offset="1" stop-color="#29abe2"/></linearGradient></defs><g id="Layer_2" data-name="Layer 2"><text class="cls-1" transform="translate(159.964 427.8483)">BioSpecML</text><path class="cls-2" d="M130.8376,184.9211c22.66-.8185,37.4166-25.9261,60.28-16.2995,8.8636,3.732,44.6714-52.8185,27.3827,12.8784-5,19-5,40,12,42,21.7277,2.5562,54.98-77.4817,86-128,16.4824-26.8426,6.6861,53.6875,18.823,123.47,5.6807,32.6611,6.6179,41.1855,10.6907,41.8963,20.7924,3.6291,68.23-226.57,82.81-223.8567,15.8383,2.948-15.5933,275.458-5.8475,276.8171,7.64,1.0654,23.2121-154.2908,68.1419-159.1354,27.0707-2.919,28.2917,42.83,78.0846,57.2128,19.3791,5.5977,66.9788-19.5069,85.0766-17.4923,39.0975,4.3524,20.8114,11.1148,75.9264-8.9438"/><line class="cls-3" x1="112.5437" y1="184.8665" x2="747.2292" y2="184.8665"/></g></svg>